# xmcd
#
# Track frame offsets:
#	150
#	18523
#	38096
#	59018
#	82436
#	100319
#	118894
#	135289
#	148249
#	164016
#	178301
#	196041
#	211152
#	229099
#	246832
#	262795
#	283735
#	299205
#
# Disc length: 4220 seconds
# Revision: 0
# Processed by: cddbd v1.5.2PL0 Copyright (c) Steve Scherf et al.
# Submitted via: dBpowerAMP V12.0
#
DISCID=1f107a12
DTITLE=Various Artist - Love Acoustic
DYEAR=2013
DGENRE=Pop
TTITLE0=Jason Mraz - I'm Yours
TTITLE1=Katy Perry - The One That Got Away (Acoustic)
TTITLE2=Coldplay - Fix You
TTITLE3=Damien Rice - Cannonball
TTITLE4=Lady Antebellum - Need You Now
TTITLE5=James Blunt - High
TTITLE6=Rumer - Slow
TTITLE7=Everything But The Girl - Alfie
TTITLE8=Bird And The Bee, The - How Deep Is Your Love
TTITLE9=Kings Of Convenience - Mrs. Cold
TTITLE10=Jason Castro - Hallelujah
TTITLE11=Craig David - Unbelievable
TTITLE12=Lene Martin - Sitting Down Here
TTITLE13=Daniel Powter - Bad Bad
TTITLE14=Emilia Mitiku - So Wonderful
TTITLE15=Pretty Boy - M2M
TTITLE16=Ryan Cabrera - True
TTITLE17=Jet - Look What You've Done
EXTD=
EXTT0=
EXTT1=
EXTT2=
EXTT3=
EXTT4=
EXTT5=
EXTT6=
EXTT7=
EXTT8=
EXTT9=
EXTT10=
EXTT11=
EXTT12=
EXTT13=
EXTT14=
EXTT15=
EXTT16=
EXTT17=
PLAYORDER=
